Coordinates
version=1
nRows=7
nColumns=42
inDegrees=yes

Units are S.I. units (second, meters, Newtons, ...)
If the header above contains a line with 'inDegrees', this indicates whether rotational values are in degrees (yes) or radians (no).

endheader
time	pelvis_tilt	pelvis_list	pelvis_rotation	pelvis_tx	pelvis_ty	pelvis_tz	hip_flexion_r	hip_adduction_r	hip_rotation_r	knee_angle_r	knee_adduction_r	knee_angle_r_beta	ankle_angle_r	subtalar_angle_r	mtp_angle_r	hip_flexion_l	hip_adduction_l	hip_rotation_l	knee_angle_l	knee_adduction_l	knee_angle_l_beta	ankle_angle_l	subtalar_angle_l	mtp_angle_l	lumbar_extension	lumbar_bending	lumbar_rotation	arm_flex_r	arm_add_r	arm_rot_r	elbow_flex_r	pro_sup_r	wrist_flex_r	wrist_dev_r	arm_flex_l	arm_add_l	arm_rot_l	elbow_flex_l	pro_sup_l	wrist_flex_l	wrist_dev_l
      0.90000000	     14.31256545	     -2.29973931	     -3.27574781	     -0.08093334	      0.97248886	     -0.10338595	    -27.85561671	      6.76008892	     -5.32011721	      3.16612500	     -0.65686357	      0.05525931	     13.47284911	      9.19948342	     -7.76636593	     10.76463458	     -3.12447320	     -2.86315267	     16.23839563	      2.39617678	      0.28341347	     -0.77005953	      2.68131617	     -7.76636593	    -34.51156460	      3.98913812	     12.10658926	      2.24710675	    -26.92464116	     -0.73274585	     76.42394368	     90.00000001	      0.00000000	      0.00000000	     -8.90014844	    -17.10859151	      2.77075132	     54.55470254	     90.00000001	      0.00000000	      0.00000000
      0.91000000	     13.90797355	     -2.89613587	     -3.73892275	     -0.06773469	      0.96916283	     -0.10254361	    -28.14211903	      7.23704172	     -4.93871180	      3.60886820	     -0.83601515	      0.06298663	     14.13836333	      9.29813562	     -7.76114670	     11.34788623	     -3.72230999	     -4.05529322	     13.73478056	      2.36108796	      0.23971714	     -1.10945270	      3.94584563	     -7.76114670	    -34.21649134	      4.38827172	     12.66168833	      2.61879735	    -27.21871203	     -0.34013700	     76.43701687	     90.00000001	      0.00000000	      0.00000000	     -9.48246928	    -16.85286255	      2.59154957	     54.62784591	     90.00000001	      0.00000000	      0.00000000
      0.92000000	     13.75934765	     -3.23937469	     -4.41495525	     -0.05397134	      0.96621482	     -0.10173917	    -28.64142176	      7.21763410	     -4.91237361	      4.27885442	     -0.85217083	      0.07468010	     14.91815385	      9.90002305	     -7.73722323	     11.69609829	     -3.97992572	     -6.60037403	     11.86133098	      1.93233803	      0.20701928	     -0.77324242	      6.93264575	     -7.73722323	    -34.12500451	      4.44630848	     13.11748508	      3.06176762	    -27.50066999	      0.22288535	     76.35888922	     90.00000001	      0.00000000	      0.00000000	    -10.19733218	    -16.49873459	      2.09904111	     54.71389862	     90.00000001	      0.00000000	      0.00000000
      0.93000000	     13.44010430	     -3.62861678	     -5.02283671	     -0.04039387	      0.96322179	     -0.10097981	    -28.93681476	      7.29220161	     -4.69682237	      4.97869778	     -0.94322573	      0.08689467	     15.55909642	     10.21587528	     -7.73070614	     12.07829883	     -4.32224690	     -7.86390036	     10.09957364	      1.97274956	      0.17627081	     -0.85064349	      7.52466151	     -7.73070614	    -33.90241712	      4.58883978	     13.62798166	      3.42287787	    -27.72335314	      0.59734616	     76.22132386	     90.00000001	      0.00000000	      0.00000000	    -10.74008408	    -16.20818268	      1.89537502	     54.70258303	     90.00000001	      0.00000000	      0.00000000
      0.94000000	     12.92556276	     -3.99967037	     -5.20022320	     -0.02661719	      0.95992421	     -0.10090846	    -29.09478055	      7.48111591	     -4.83981979	      5.51530877	     -0.90687829	      0.09626030	     15.75872114	     10.27603676	     -7.72872149	     12.94806487	     -4.51686928	     -8.71314203	      9.28419355	      1.90094513	      0.16203975	     -0.63531887	      7.46020923	     -7.72872149	    -33.42905730	      4.96345776	     13.79063752	      3.64385761	    -27.75610013	      0.63283433	     76.18613328	     90.00000001	      0.00000000	      0.00000000	    -11.21454691	    -16.02082326	      1.92473771	     54.63530628	     90.00000001	      0.00000000	      0.00000000
      0.95000000	     12.69897115	     -4.28033418	     -6.26775546	     -0.01276180	      0.95753137	     -0.09944165	    -29.27818700	      7.19545465	     -4.55932800	      6.72860619	     -1.15196809	      0.11743633	     16.70781082	     11.30834949	     -7.72417039	     12.94206888	     -4.87137691	    -10.12736171	      8.15096267	      2.06038597	      0.14226114	     -0.39597050	      7.98068874	     -7.72417039	    -33.30533275	      4.73816881	     14.56051753	      4.09228216	    -27.94130032	      1.21333635	     75.69279813	     90.00000001	      0.00000000	      0.00000000	    -11.68572132	    -15.67239517	      1.58999577	     54.54033546	     90.00000001	      0.00000000	      0.00000000
      0.96000000	     12.57149677	     -4.17165338	     -6.80662707	      0.00173091	      0.95503000	     -0.09914243	    -29.32932024	      6.53481918	     -6.56074950	      8.29577458	     -1.38407020	      0.14478858	     18.09546145	     15.32226960	     -7.70675140	     13.32071285	     -4.52947583	    -12.09893345	      8.30278426	      1.65236077	      0.14491092	      0.30858245	      9.73145527	     -7.70675140	    -33.12276126	      4.41881012	     14.67181434	      4.33816643	    -27.96470094	      1.52567476	     75.43163142	     90.00000001	      0.00000000	      0.00000000	    -12.15798874	    -15.47831846	      1.30577179	     54.50840167	     90.00000001	      0.00000000	      0.00000000
